# xmcd
#
# Track frame offsets: 
#        300
#        12252
#        26743
#        66566
#        95994
#        111322
#
# Disc length: 1595 seconds
#
# Revision: 0
# Processed by: cddbd v1.5.2PL0 Copyright (c) Steve Scherf et al.
# Submitted via: ExactAudioCopy v0.99pb5
#
DISCID=57063706
DTITLE=Squash Bowels - Tnyribal
DYEAR=1999
DGENRE=Goregrind
TTITLE0=Stranger Mind (Possessed, Amssenn, Passage)
TTITLE1=Dark Corridors (Xabon, Refractive, Naxaru, Ytarb)
TTITLE2=Zema Inpa (Fear, Doldrums, Liberate Me!, Dizziness, Effluuium)
TTITLE3=Zonhori Nteve (Blood, Soulless, Radiate, Transmit)
TTITLE4=Bad Sector (Melzu Nepa, Sybba, Rezom, Dergi)
TTITLE5=Black Thing (The Shape, TMA, 3, Error)
EXTD=
EXTT0=
EXTT1=
EXTT2=
EXTT3=
EXTT4=
EXTT5=
PLAYORDER=
